<svg xmlns="http://www.w3.org/2000/svg" width="13.999" height="14" viewBox="0 0 13.999 14">
  <defs>
    <style>
      .cls-1 {
        fill: #6e798e;
      }
    </style>
  </defs>
  <path id="减去_4" data-name="减去 4" class="cls-1" d="M.358,14A.358.358,0,0,1,.1,13.9a.4.4,0,0,1-.052-.465L1.661,9.681,4.32,12.338.567,13.95A.478.478,0,0,1,.358,14Zm4.95-2.515h0L2.515,8.691,10.891.313A1.03,1.03,0,0,1,11.607,0a.718.718,0,0,1,.513.2L13.8,1.879a.716.716,0,0,1,.2.513,1.028,1.028,0,0,1-.314.716L5.309,11.484Z"/>
</svg>
